<svg xmlns="http://www.w3.org/2000/svg" width="2500" height="2500" viewBox="0 0 192.756 192.756"><g fill-rule="evenodd" clip-rule="evenodd"><path d="M47.676 68.282c7.666 0 14.698 3.024 19.903 7.877L57.241 92.616c-2.672-3.517-5.556-5.557-10.197-5.205-5.345.422-9.565 4.853-9.565 10.127 0 5.627 4.642 10.197 10.409 10.197 4.009 0 9.002-2.953 11.042-6.329l11.534 14.488c-5.345 6.681-13.573 10.899-22.786 10.899-16.105 0-29.256-13.15-29.256-29.256-.002-16.103 13.149-29.255 29.254-29.255zM72.431 70.533l17.16-2.884v56.403h-17.16V70.533zM153.871 83.051c10.83 0 19.691 8.229 20.887 18.707-7.877 2.181-15.754 4.36-23.559 6.611.982 1.406 2.25 2.391 4.641 2.391 2.32 0 4.359-1.125 5.627-4.501l13.924 4.924c-2.953 8.087-11.814 13.924-21.52 13.924-11.533 0-20.959-9.494-20.959-21.098 0-11.534 9.426-20.958 20.959-20.958zm-5.135 17.652s8.65-2.461 9.354-2.673c-.984-2.742-3.516-3.727-5.766-3.164-2.322.563-4.291 2.531-3.588 5.837zM92.053 83.685h17.09v23.98c0 1.267 1.055 2.321 2.32 2.321s2.391-1.055 2.391-2.321v-23.98h17.09v33.616l-17.09 6.962v-3.517c-2.039 1.759-4.711 2.884-8.367 2.884-7.596 0-13.434-6.893-13.434-14.136V83.685z" fill="#000000"/></g></svg>
